<mxfile host="Electron" modified="2024-03-17T20:53:38.832Z" agent="Mozilla/5.0 (Windows NT 10.0; Win64; x64) AppleWebKit/537.36 (KHTML, like Gecko) draw.io/23.1.5 Chrome/120.0.6099.109 Electron/28.1.0 Safari/537.36" etag="GYp1QGMWf1kjQE8xu4Vr" version="23.1.5" type="device" pages="13">
  <diagram name="SimpleMove" id="ttixwJUeaHLuwKUpD-Zb">
    <mxGraphModel dx="880" dy="532" grid="1" gridSize="10" guides="1" tooltips="1" connect="1" arrows="1" fold="1" page="1" pageScale="1" pageWidth="827" pageHeight="1169" math="0" shadow="0">
      <root>
        <mxCell id="0" />
        <mxCell id="1" parent="0" />
        <mxCell id="Hs1kt8tsO8VmQUhpT7sQ-1" value="r2: Room" style="html=1;whiteSpace=wrap;" vertex="1" parent="1">
          <mxGeometry x="130" y="290" width="110" height="50" as="geometry" />
        </mxCell>
        <mxCell id="Hs1kt8tsO8VmQUhpT7sQ-2" value="s: Student" style="html=1;whiteSpace=wrap;" vertex="1" parent="1">
          <mxGeometry x="130" y="130" width="110" height="50" as="geometry" />
        </mxCell>
        <mxCell id="Hs1kt8tsO8VmQUhpT7sQ-3" value="r1: Room" style="html=1;whiteSpace=wrap;" vertex="1" parent="1">
          <mxGeometry x="390" y="130" width="110" height="50" as="geometry" />
        </mxCell>
        <mxCell id="Hs1kt8tsO8VmQUhpT7sQ-4" value="sd Simple Move" style="shape=umlFrame;whiteSpace=wrap;html=1;pointerEvents=0;width=110;height=30;" vertex="1" parent="1">
          <mxGeometry x="60" y="40" width="550" height="380" as="geometry" />
        </mxCell>
        <mxCell id="dDFBhO0TIRUiKfnM5f7h-1" value="" style="endArrow=none;html=1;rounded=0;" edge="1" parent="1" source="Hs1kt8tsO8VmQUhpT7sQ-1" target="Hs1kt8tsO8VmQUhpT7sQ-2">
          <mxGeometry width="50" height="50" relative="1" as="geometry">
            <mxPoint x="390" y="300" as="sourcePoint" />
            <mxPoint x="440" y="250" as="targetPoint" />
          </mxGeometry>
        </mxCell>
        <mxCell id="dDFBhO0TIRUiKfnM5f7h-2" value="1: addcharacter(s)" style="html=1;verticalAlign=bottom;endArrow=block;curved=0;rounded=0;horizontal=0;" edge="1" parent="1">
          <mxGeometry x="-0.1088" y="-10" width="80" relative="1" as="geometry">
            <mxPoint x="130" y="190" as="sourcePoint" />
            <mxPoint x="129" y="280" as="targetPoint" />
            <mxPoint as="offset" />
          </mxGeometry>
        </mxCell>
      </root>
    </mxGraphModel>
  </diagram>
  <diagram id="wICkGsR8HxsWq7h2CoFG" name="TransistorJump">
    <mxGraphModel dx="880" dy="1701" grid="1" gridSize="10" guides="1" tooltips="1" connect="1" arrows="1" fold="1" page="1" pageScale="1" pageWidth="827" pageHeight="1169" math="0" shadow="0">
      <root>
        <mxCell id="0" />
        <mxCell id="1" parent="0" />
        <mxCell id="2vBtiuyUsDSU_rNewhbY-1" value="&lt;b&gt;sd&lt;/b&gt;&amp;nbsp;Transistor Jump" style="shape=umlFrame;whiteSpace=wrap;html=1;pointerEvents=0;width=190;height=30;" vertex="1" parent="1">
          <mxGeometry x="50" y="-490" width="620" height="410" as="geometry" />
        </mxCell>
        <mxCell id="Du7ihi0lZH-QFvdKasJx-1" value="t: Transistor" style="html=1;whiteSpace=wrap;" vertex="1" parent="1">
          <mxGeometry x="130" y="-240" width="110" height="50" as="geometry" />
        </mxCell>
        <mxCell id="Du7ihi0lZH-QFvdKasJx-2" value="r2: Room" style="html=1;whiteSpace=wrap;" vertex="1" parent="1">
          <mxGeometry x="470" y="-240" width="110" height="50" as="geometry" />
        </mxCell>
        <mxCell id="Du7ihi0lZH-QFvdKasJx-3" value="r1: Room" style="html=1;whiteSpace=wrap;" vertex="1" parent="1">
          <mxGeometry x="470" y="-400" width="110" height="50" as="geometry" />
        </mxCell>
        <mxCell id="Du7ihi0lZH-QFvdKasJx-4" value="s: Student" style="html=1;whiteSpace=wrap;" vertex="1" parent="1">
          <mxGeometry x="130" y="-400" width="110" height="50" as="geometry" />
        </mxCell>
        <mxCell id="Du7ihi0lZH-QFvdKasJx-6" value="" style="endArrow=none;html=1;rounded=0;" edge="1" parent="1" source="Du7ihi0lZH-QFvdKasJx-4" target="Du7ihi0lZH-QFvdKasJx-3">
          <mxGeometry width="50" height="50" relative="1" as="geometry">
            <mxPoint x="390" y="-230" as="sourcePoint" />
            <mxPoint x="440" y="-280" as="targetPoint" />
          </mxGeometry>
        </mxCell>
        <mxCell id="Du7ihi0lZH-QFvdKasJx-7" value="" style="endArrow=none;html=1;rounded=0;" edge="1" parent="1" source="Du7ihi0lZH-QFvdKasJx-1" target="Du7ihi0lZH-QFvdKasJx-4">
          <mxGeometry width="50" height="50" relative="1" as="geometry">
            <mxPoint x="390" y="-230" as="sourcePoint" />
            <mxPoint x="440" y="-280" as="targetPoint" />
          </mxGeometry>
        </mxCell>
        <mxCell id="Du7ihi0lZH-QFvdKasJx-8" value="1: getTransistor()" style="html=1;verticalAlign=bottom;endArrow=block;curved=0;rounded=0;" edge="1" parent="1">
          <mxGeometry width="80" relative="1" as="geometry">
            <mxPoint x="280" y="-400" as="sourcePoint" />
            <mxPoint x="350" y="-400" as="targetPoint" />
          </mxGeometry>
        </mxCell>
        <mxCell id="Du7ihi0lZH-QFvdKasJx-9" value="2: t" style="html=1;verticalAlign=bottom;endArrow=open;dashed=1;endSize=8;curved=0;rounded=0;" edge="1" parent="1">
          <mxGeometry relative="1" as="geometry">
            <mxPoint x="340" y="-351" as="sourcePoint" />
            <mxPoint x="270" y="-351" as="targetPoint" />
          </mxGeometry>
        </mxCell>
        <mxCell id="Du7ihi0lZH-QFvdKasJx-12" value="3: getPairsRoom()" style="html=1;verticalAlign=bottom;endArrow=block;curved=0;rounded=0;horizontal=0;" edge="1" parent="1">
          <mxGeometry x="0.1429" y="-10" width="80" relative="1" as="geometry">
            <mxPoint x="130" y="-330" as="sourcePoint" />
            <mxPoint x="130" y="-260" as="targetPoint" />
            <mxPoint as="offset" />
          </mxGeometry>
        </mxCell>
        <mxCell id="Du7ihi0lZH-QFvdKasJx-13" value="4: r2" style="html=1;verticalAlign=bottom;endArrow=open;dashed=1;endSize=8;curved=0;rounded=0;horizontal=0;" edge="1" parent="1">
          <mxGeometry x="-0.1429" y="9" relative="1" as="geometry">
            <mxPoint x="239" y="-260" as="sourcePoint" />
            <mxPoint x="239" y="-330" as="targetPoint" />
            <mxPoint as="offset" />
          </mxGeometry>
        </mxCell>
        <mxCell id="Du7ihi0lZH-QFvdKasJx-14" value="5: removePlayer(s)" style="html=1;verticalAlign=bottom;endArrow=block;curved=0;rounded=0;" edge="1" parent="1">
          <mxGeometry width="80" relative="1" as="geometry">
            <mxPoint x="390" y="-400" as="sourcePoint" />
            <mxPoint x="456" y="-400" as="targetPoint" />
          </mxGeometry>
        </mxCell>
        <mxCell id="Du7ihi0lZH-QFvdKasJx-15" value="" style="endArrow=none;html=1;rounded=0;" edge="1" parent="1" source="Du7ihi0lZH-QFvdKasJx-4" target="Du7ihi0lZH-QFvdKasJx-2">
          <mxGeometry width="50" height="50" relative="1" as="geometry">
            <mxPoint x="390" y="-240" as="sourcePoint" />
            <mxPoint x="440" y="-290" as="targetPoint" />
          </mxGeometry>
        </mxCell>
        <mxCell id="Du7ihi0lZH-QFvdKasJx-16" value="6: addCharacter(s)" style="html=1;verticalAlign=bottom;endArrow=block;curved=0;rounded=0;horizontal=1;" edge="1" parent="1">
          <mxGeometry x="0.7333" y="18" width="80" relative="1" as="geometry">
            <mxPoint x="360" y="-310" as="sourcePoint" />
            <mxPoint x="420" y="-280" as="targetPoint" />
            <mxPoint as="offset" />
          </mxGeometry>
        </mxCell>
      </root>
    </mxGraphModel>
  </diagram>
  <diagram id="nZAsTewtqVakTeSBx7uu" name="EnterRoom">
    <mxGraphModel dx="880" dy="532" grid="1" gridSize="10" guides="1" tooltips="1" connect="1" arrows="1" fold="1" page="1" pageScale="1" pageWidth="827" pageHeight="1169" math="0" shadow="0">
      <root>
        <mxCell id="0" />
        <mxCell id="1" parent="0" />
        <mxCell id="BR1jENmQXeQ02MUQEtQg-1" value="r2: Room" style="html=1;whiteSpace=wrap;" vertex="1" parent="1">
          <mxGeometry x="120" y="160" width="110" height="50" as="geometry" />
        </mxCell>
        <mxCell id="BR1jENmQXeQ02MUQEtQg-2" value="r1: Room" style="html=1;whiteSpace=wrap;" vertex="1" parent="1">
          <mxGeometry x="480" y="160" width="110" height="50" as="geometry" />
        </mxCell>
        <mxCell id="BR1jENmQXeQ02MUQEtQg-3" value="c2: Character" style="html=1;whiteSpace=wrap;" vertex="1" parent="1">
          <mxGeometry x="480" y="440" width="110" height="50" as="geometry" />
        </mxCell>
        <mxCell id="BR1jENmQXeQ02MUQEtQg-4" value="c1: Character" style="html=1;whiteSpace=wrap;" vertex="1" parent="1">
          <mxGeometry x="120" y="440" width="110" height="50" as="geometry" />
        </mxCell>
        <mxCell id="BR1jENmQXeQ02MUQEtQg-5" value="" style="endArrow=none;html=1;rounded=0;" edge="1" parent="1" source="BR1jENmQXeQ02MUQEtQg-4" target="BR1jENmQXeQ02MUQEtQg-1">
          <mxGeometry width="50" height="50" relative="1" as="geometry">
            <mxPoint x="390" y="300" as="sourcePoint" />
            <mxPoint x="440" y="250" as="targetPoint" />
          </mxGeometry>
        </mxCell>
        <mxCell id="BR1jENmQXeQ02MUQEtQg-6" value="" style="endArrow=none;html=1;rounded=0;entryX=0.927;entryY=0.96;entryDx=0;entryDy=0;entryPerimeter=0;" edge="1" parent="1" source="BR1jENmQXeQ02MUQEtQg-3" target="BR1jENmQXeQ02MUQEtQg-1">
          <mxGeometry width="50" height="50" relative="1" as="geometry">
            <mxPoint x="390" y="300" as="sourcePoint" />
            <mxPoint x="440" y="250" as="targetPoint" />
          </mxGeometry>
        </mxCell>
        <mxCell id="BR1jENmQXeQ02MUQEtQg-7" value="" style="endArrow=none;html=1;rounded=0;" edge="1" parent="1" source="BR1jENmQXeQ02MUQEtQg-1" target="BR1jENmQXeQ02MUQEtQg-2">
          <mxGeometry width="50" height="50" relative="1" as="geometry">
            <mxPoint x="390" y="300" as="sourcePoint" />
            <mxPoint x="440" y="250" as="targetPoint" />
          </mxGeometry>
        </mxCell>
        <mxCell id="BR1jENmQXeQ02MUQEtQg-8" value="" style="endArrow=none;html=1;rounded=0;entryX=0.75;entryY=0;entryDx=0;entryDy=0;" edge="1" parent="1" source="BR1jENmQXeQ02MUQEtQg-1" target="BR1jENmQXeQ02MUQEtQg-1">
          <mxGeometry width="50" height="50" relative="1" as="geometry">
            <mxPoint x="150" y="170" as="sourcePoint" />
            <mxPoint x="440" y="250" as="targetPoint" />
            <Array as="points">
              <mxPoint x="80" y="185" />
              <mxPoint x="80" y="100" />
              <mxPoint x="203" y="100" />
            </Array>
          </mxGeometry>
        </mxCell>
        <mxCell id="BR1jENmQXeQ02MUQEtQg-9" value="1: getRoom()" style="html=1;verticalAlign=bottom;endArrow=block;curved=0;rounded=0;horizontal=0;" edge="1" parent="1">
          <mxGeometry y="-10" width="80" relative="1" as="geometry">
            <mxPoint x="120" y="240" as="sourcePoint" />
            <mxPoint x="120" y="320" as="targetPoint" />
            <mxPoint as="offset" />
          </mxGeometry>
        </mxCell>
        <mxCell id="BR1jENmQXeQ02MUQEtQg-10" value="2: r" style="html=1;verticalAlign=bottom;endArrow=open;dashed=1;endSize=8;curved=0;rounded=0;horizontal=0;" edge="1" parent="1">
          <mxGeometry x="-0.1429" y="9" relative="1" as="geometry">
            <mxPoint x="229" y="310" as="sourcePoint" />
            <mxPoint x="229" y="240" as="targetPoint" />
            <mxPoint as="offset" />
          </mxGeometry>
        </mxCell>
        <mxCell id="QGA5v5P9WceaKEqZ0K7b-1" value="3: b: isAccessible()" style="html=1;verticalAlign=bottom;endArrow=block;curved=0;rounded=0;" edge="1" parent="1">
          <mxGeometry width="80" relative="1" as="geometry">
            <mxPoint x="90" y="90" as="sourcePoint" />
            <mxPoint x="170" y="90" as="targetPoint" />
          </mxGeometry>
        </mxCell>
        <mxCell id="QGA5v5P9WceaKEqZ0K7b-2" value="4: [b]:&amp;nbsp; removeCharacter(c1)" style="html=1;verticalAlign=bottom;endArrow=block;curved=0;rounded=0;" edge="1" parent="1">
          <mxGeometry width="80" relative="1" as="geometry">
            <mxPoint x="240" y="160" as="sourcePoint" />
            <mxPoint x="340" y="160" as="targetPoint" />
          </mxGeometry>
        </mxCell>
        <mxCell id="QGA5v5P9WceaKEqZ0K7b-3" value="5: [b]: onEntered(c1)&amp;nbsp;" style="html=1;verticalAlign=bottom;endArrow=block;curved=0;rounded=0;" edge="1" parent="1">
          <mxGeometry width="80" relative="1" as="geometry">
            <mxPoint x="120" y="70" as="sourcePoint" />
            <mxPoint x="200" y="70" as="targetPoint" />
          </mxGeometry>
        </mxCell>
        <mxCell id="QGA5v5P9WceaKEqZ0K7b-4" value="5.1: [b]: *[for all c2 :&lt;br style=&quot;border-color: var(--border-color); font-size: 12px; background-color: rgb(251, 251, 251);&quot;&gt;&lt;span style=&quot;font-size: 12px; background-color: rgb(251, 251, 251);&quot;&gt;listOfCharacters]: meet(c1)&lt;/span&gt;&amp;nbsp;" style="html=1;verticalAlign=bottom;endArrow=block;curved=0;rounded=0;" edge="1" parent="1">
          <mxGeometry x="0.5962" y="46" width="80" relative="1" as="geometry">
            <mxPoint x="350" y="290" as="sourcePoint" />
            <mxPoint x="440" y="360" as="targetPoint" />
            <mxPoint as="offset" />
          </mxGeometry>
        </mxCell>
        <mxCell id="EUZY-psFuJN2JxQwfi8S-1" value="sd Enter Room" style="shape=umlFrame;whiteSpace=wrap;html=1;pointerEvents=0;width=110;height=30;" vertex="1" parent="1">
          <mxGeometry x="30" y="10" width="670" height="540" as="geometry" />
        </mxCell>
      </root>
    </mxGraphModel>
  </diagram>
  <diagram id="k2JiJo2xfN4HFhqCQA1V" name="UseDice">
    <mxGraphModel dx="880" dy="532" grid="1" gridSize="10" guides="1" tooltips="1" connect="1" arrows="1" fold="1" page="1" pageScale="1" pageWidth="827" pageHeight="1169" math="0" shadow="0">
      <root>
        <mxCell id="0" />
        <mxCell id="1" parent="0" />
        <mxCell id="-vxjsBdtmUjl9USAOdlJ-2" value="d: Dice" style="html=1;whiteSpace=wrap;" vertex="1" parent="1">
          <mxGeometry x="414" y="160" width="110" height="50" as="geometry" />
        </mxCell>
        <mxCell id="-vxjsBdtmUjl9USAOdlJ-3" value="s: Student" style="html=1;whiteSpace=wrap;" vertex="1" parent="1">
          <mxGeometry x="120" y="160" width="110" height="50" as="geometry" />
        </mxCell>
        <mxCell id="-vxjsBdtmUjl9USAOdlJ-4" value="" style="endArrow=none;html=1;rounded=0;" edge="1" parent="1" source="-vxjsBdtmUjl9USAOdlJ-3" target="-vxjsBdtmUjl9USAOdlJ-2">
          <mxGeometry width="50" height="50" relative="1" as="geometry">
            <mxPoint x="390" y="300" as="sourcePoint" />
            <mxPoint x="440" y="250" as="targetPoint" />
          </mxGeometry>
        </mxCell>
        <mxCell id="-vxjsBdtmUjl9USAOdlJ-5" value="1: use(s)" style="html=1;verticalAlign=bottom;endArrow=block;curved=0;rounded=0;" edge="1" parent="1">
          <mxGeometry width="80" relative="1" as="geometry">
            <mxPoint x="250" y="159" as="sourcePoint" />
            <mxPoint x="330" y="159" as="targetPoint" />
          </mxGeometry>
        </mxCell>
        <mxCell id="-vxjsBdtmUjl9USAOdlJ-6" value="" style="endArrow=none;html=1;rounded=0;" edge="1" parent="1" source="-vxjsBdtmUjl9USAOdlJ-2" target="-vxjsBdtmUjl9USAOdlJ-2">
          <mxGeometry width="50" height="50" relative="1" as="geometry">
            <mxPoint x="390" y="300" as="sourcePoint" />
            <mxPoint x="440" y="250" as="targetPoint" />
            <Array as="points">
              <mxPoint x="470" y="120" />
              <mxPoint x="610" y="120" />
              <mxPoint x="610" y="185" />
            </Array>
          </mxGeometry>
        </mxCell>
        <mxCell id="-vxjsBdtmUjl9USAOdlJ-7" value="1.1: r: throw()" style="html=1;verticalAlign=bottom;endArrow=block;curved=0;rounded=0;" edge="1" parent="1">
          <mxGeometry width="80" relative="1" as="geometry">
            <mxPoint x="500" y="110" as="sourcePoint" />
            <mxPoint x="580" y="110" as="targetPoint" />
          </mxGeometry>
        </mxCell>
        <mxCell id="-vxjsBdtmUjl9USAOdlJ-8" value="1.1.1:&amp;nbsp; addRounds(r)" style="html=1;verticalAlign=bottom;endArrow=block;curved=0;rounded=0;" edge="1" parent="1">
          <mxGeometry width="80" relative="1" as="geometry">
            <mxPoint x="330" y="210" as="sourcePoint" />
            <mxPoint x="250" y="210" as="targetPoint" />
          </mxGeometry>
        </mxCell>
        <mxCell id="-vxjsBdtmUjl9USAOdlJ-9" value="sd Use Dice" style="shape=umlFrame;whiteSpace=wrap;html=1;pointerEvents=0;width=76;height=30;" vertex="1" parent="1">
          <mxGeometry x="60" y="60" width="610" height="200" as="geometry" />
        </mxCell>
      </root>
    </mxGraphModel>
  </diagram>
  <diagram id="4XByZ-VQZwRT9DdYOekh" name="UseFFP2">
    <mxGraphModel dx="880" dy="532" grid="1" gridSize="10" guides="1" tooltips="1" connect="1" arrows="1" fold="1" page="1" pageScale="1" pageWidth="827" pageHeight="1169" math="0" shadow="0">
      <root>
        <mxCell id="0" />
        <mxCell id="1" parent="0" />
        <mxCell id="sYDVYwgNXWHB4dJMzSJa-1" value="f: FFP2" style="html=1;whiteSpace=wrap;" vertex="1" parent="1">
          <mxGeometry x="400" y="160" width="110" height="50" as="geometry" />
        </mxCell>
        <mxCell id="sYDVYwgNXWHB4dJMzSJa-2" value="s: Student" style="html=1;whiteSpace=wrap;" vertex="1" parent="1">
          <mxGeometry x="120" y="160" width="110" height="50" as="geometry" />
        </mxCell>
        <mxCell id="sYDVYwgNXWHB4dJMzSJa-3" value="" style="endArrow=none;html=1;rounded=0;" edge="1" parent="1" source="sYDVYwgNXWHB4dJMzSJa-2" target="sYDVYwgNXWHB4dJMzSJa-1">
          <mxGeometry width="50" height="50" relative="1" as="geometry">
            <mxPoint x="390" y="270" as="sourcePoint" />
            <mxPoint x="440" y="220" as="targetPoint" />
          </mxGeometry>
        </mxCell>
        <mxCell id="sYDVYwgNXWHB4dJMzSJa-4" value="1: use(s)" style="html=1;verticalAlign=bottom;endArrow=block;curved=0;rounded=0;" edge="1" parent="1">
          <mxGeometry width="80" relative="1" as="geometry">
            <mxPoint x="250" y="159" as="sourcePoint" />
            <mxPoint x="330" y="159" as="targetPoint" />
          </mxGeometry>
        </mxCell>
        <mxCell id="sYDVYwgNXWHB4dJMzSJa-5" value="1.1: addMaskedRounds(2)" style="html=1;verticalAlign=bottom;endArrow=block;curved=0;rounded=0;" edge="1" parent="1">
          <mxGeometry width="80" relative="1" as="geometry">
            <mxPoint x="340" y="209" as="sourcePoint" />
            <mxPoint x="260" y="209" as="targetPoint" />
          </mxGeometry>
        </mxCell>
        <mxCell id="sYDVYwgNXWHB4dJMzSJa-6" value="sd Use FFP2" style="shape=umlFrame;whiteSpace=wrap;html=1;pointerEvents=0;width=90;height=30;" vertex="1" parent="1">
          <mxGeometry x="70" y="110" width="510" height="170" as="geometry" />
        </mxCell>
      </root>
    </mxGraphModel>
  </diagram>
  <diagram id="CnvNlMvuDq1tp93OCKGI" name="UseTransistor">
    <mxGraphModel dx="880" dy="532" grid="1" gridSize="10" guides="1" tooltips="1" connect="1" arrows="1" fold="1" page="1" pageScale="1" pageWidth="827" pageHeight="1169" math="0" shadow="0">
      <root>
        <mxCell id="0" />
        <mxCell id="1" parent="0" />
        <mxCell id="Nq0okJVS5V2XWCBbkNmB-1" value="t: Transistor" style="html=1;whiteSpace=wrap;" vertex="1" parent="1">
          <mxGeometry x="480" y="160" width="110" height="50" as="geometry" />
        </mxCell>
        <mxCell id="Nq0okJVS5V2XWCBbkNmB-2" value="s: Student" style="html=1;whiteSpace=wrap;" vertex="1" parent="1">
          <mxGeometry x="160" y="160" width="110" height="50" as="geometry" />
        </mxCell>
        <mxCell id="Nq0okJVS5V2XWCBbkNmB-3" value="r: Room" style="html=1;whiteSpace=wrap;" vertex="1" parent="1">
          <mxGeometry x="480" y="400" width="110" height="50" as="geometry" />
        </mxCell>
        <mxCell id="Nq0okJVS5V2XWCBbkNmB-4" value="" style="endArrow=none;html=1;rounded=0;" edge="1" parent="1" source="Nq0okJVS5V2XWCBbkNmB-3" target="Nq0okJVS5V2XWCBbkNmB-1">
          <mxGeometry width="50" height="50" relative="1" as="geometry">
            <mxPoint x="390" y="300" as="sourcePoint" />
            <mxPoint x="440" y="250" as="targetPoint" />
          </mxGeometry>
        </mxCell>
        <mxCell id="Nq0okJVS5V2XWCBbkNmB-5" value="" style="endArrow=none;html=1;rounded=0;" edge="1" parent="1" source="Nq0okJVS5V2XWCBbkNmB-1" target="Nq0okJVS5V2XWCBbkNmB-2">
          <mxGeometry width="50" height="50" relative="1" as="geometry">
            <mxPoint x="390" y="300" as="sourcePoint" />
            <mxPoint x="440" y="250" as="targetPoint" />
          </mxGeometry>
        </mxCell>
        <mxCell id="Nq0okJVS5V2XWCBbkNmB-6" value="1.2: addTransistor(t)" style="html=1;verticalAlign=bottom;endArrow=block;curved=0;rounded=0;horizontal=0;" edge="1" parent="1">
          <mxGeometry y="-10" width="80" relative="1" as="geometry">
            <mxPoint x="480" y="240" as="sourcePoint" />
            <mxPoint x="480" y="380" as="targetPoint" />
            <mxPoint as="offset" />
          </mxGeometry>
        </mxCell>
        <mxCell id="Nq0okJVS5V2XWCBbkNmB-7" value="1.1 : getRoom()" style="html=1;verticalAlign=bottom;endArrow=block;curved=0;rounded=0;" edge="1" parent="1">
          <mxGeometry width="80" relative="1" as="geometry">
            <mxPoint x="360" y="209" as="sourcePoint" />
            <mxPoint x="280" y="209" as="targetPoint" />
          </mxGeometry>
        </mxCell>
        <mxCell id="Nq0okJVS5V2XWCBbkNmB-8" value="1: use(s)" style="html=1;verticalAlign=bottom;endArrow=block;curved=0;rounded=0;" edge="1" parent="1">
          <mxGeometry width="80" relative="1" as="geometry">
            <mxPoint x="280" y="160" as="sourcePoint" />
            <mxPoint x="360" y="160" as="targetPoint" />
          </mxGeometry>
        </mxCell>
        <mxCell id="Nq0okJVS5V2XWCBbkNmB-9" value="1.1.1: r" style="html=1;verticalAlign=bottom;endArrow=open;dashed=1;endSize=8;curved=0;rounded=0;horizontal=1;" edge="1" parent="1">
          <mxGeometry relative="1" as="geometry">
            <mxPoint x="374" y="160" as="sourcePoint" />
            <mxPoint x="454" y="160" as="targetPoint" />
          </mxGeometry>
        </mxCell>
        <mxCell id="S2HwA52qIB7YnYNg0K9u-1" value="sd Use Transistor" style="shape=umlFrame;whiteSpace=wrap;html=1;pointerEvents=0;width=130;height=40;" vertex="1" parent="1">
          <mxGeometry x="70" y="100" width="560" height="370" as="geometry" />
        </mxCell>
      </root>
    </mxGraphModel>
  </diagram>
  <diagram id="s4jxtB0lXa8OtQLlaIGB" name="UseCamambert">
    <mxGraphModel dx="880" dy="532" grid="1" gridSize="10" guides="1" tooltips="1" connect="1" arrows="1" fold="1" page="1" pageScale="1" pageWidth="827" pageHeight="1169" math="0" shadow="0">
      <root>
        <mxCell id="0" />
        <mxCell id="1" parent="0" />
        <mxCell id="m4pxHZo4yDfskvT_i-JV-1" value="c: Camambert" style="html=1;whiteSpace=wrap;" vertex="1" parent="1">
          <mxGeometry x="440" y="120" width="110" height="50" as="geometry" />
        </mxCell>
        <mxCell id="m4pxHZo4yDfskvT_i-JV-2" value="gc: GameController" style="html=1;whiteSpace=wrap;" vertex="1" parent="1">
          <mxGeometry x="440" y="360" width="110" height="50" as="geometry" />
        </mxCell>
        <mxCell id="m4pxHZo4yDfskvT_i-JV-3" value="g: GasRoom" style="html=1;whiteSpace=wrap;" vertex="1" parent="1">
          <mxGeometry x="680" y="120" width="110" height="50" as="geometry" />
        </mxCell>
        <mxCell id="m4pxHZo4yDfskvT_i-JV-4" value="r: Room" style="html=1;whiteSpace=wrap;" vertex="1" parent="1">
          <mxGeometry x="120" y="360" width="110" height="50" as="geometry" />
        </mxCell>
        <mxCell id="m4pxHZo4yDfskvT_i-JV-5" value="s: Student" style="html=1;whiteSpace=wrap;" vertex="1" parent="1">
          <mxGeometry x="120" y="120" width="110" height="50" as="geometry" />
        </mxCell>
        <mxCell id="m4pxHZo4yDfskvT_i-JV-6" value="" style="endArrow=none;html=1;rounded=0;" edge="1" parent="1" source="m4pxHZo4yDfskvT_i-JV-5" target="m4pxHZo4yDfskvT_i-JV-1">
          <mxGeometry width="50" height="50" relative="1" as="geometry">
            <mxPoint x="390" y="300" as="sourcePoint" />
            <mxPoint x="440" y="250" as="targetPoint" />
          </mxGeometry>
        </mxCell>
        <mxCell id="m4pxHZo4yDfskvT_i-JV-7" value="" style="endArrow=none;html=1;rounded=0;entryX=0.25;entryY=1;entryDx=0;entryDy=0;" edge="1" parent="1" source="m4pxHZo4yDfskvT_i-JV-4" target="m4pxHZo4yDfskvT_i-JV-1">
          <mxGeometry width="50" height="50" relative="1" as="geometry">
            <mxPoint x="390" y="300" as="sourcePoint" />
            <mxPoint x="440" y="250" as="targetPoint" />
          </mxGeometry>
        </mxCell>
        <mxCell id="m4pxHZo4yDfskvT_i-JV-8" value="" style="endArrow=none;html=1;rounded=0;" edge="1" parent="1" source="m4pxHZo4yDfskvT_i-JV-2" target="m4pxHZo4yDfskvT_i-JV-1">
          <mxGeometry width="50" height="50" relative="1" as="geometry">
            <mxPoint x="390" y="300" as="sourcePoint" />
            <mxPoint x="440" y="250" as="targetPoint" />
          </mxGeometry>
        </mxCell>
        <mxCell id="m4pxHZo4yDfskvT_i-JV-9" value="" style="endArrow=none;html=1;rounded=0;" edge="1" parent="1" source="m4pxHZo4yDfskvT_i-JV-1" target="m4pxHZo4yDfskvT_i-JV-3">
          <mxGeometry width="50" height="50" relative="1" as="geometry">
            <mxPoint x="390" y="300" as="sourcePoint" />
            <mxPoint x="440" y="250" as="targetPoint" />
          </mxGeometry>
        </mxCell>
        <mxCell id="m4pxHZo4yDfskvT_i-JV-10" value="1: use(s)" style="html=1;verticalAlign=bottom;endArrow=block;curved=0;rounded=0;" edge="1" parent="1">
          <mxGeometry width="80" relative="1" as="geometry">
            <mxPoint x="240" y="120" as="sourcePoint" />
            <mxPoint x="320" y="120" as="targetPoint" />
          </mxGeometry>
        </mxCell>
        <mxCell id="I1V4JsV2NBVQt4Nd3BMe-1" value="1.1.1: getRoom()" style="html=1;verticalAlign=bottom;endArrow=block;curved=0;rounded=0;" edge="1" parent="1">
          <mxGeometry width="80" relative="1" as="geometry">
            <mxPoint x="320" y="170" as="sourcePoint" />
            <mxPoint x="240" y="170" as="targetPoint" />
          </mxGeometry>
        </mxCell>
        <mxCell id="XoQq-FdVZH6No3h-3wqu-2" value="1.1.1.1: r" style="html=1;verticalAlign=bottom;endArrow=open;dashed=1;endSize=8;curved=0;rounded=0;" edge="1" parent="1">
          <mxGeometry relative="1" as="geometry">
            <mxPoint x="340" y="120" as="sourcePoint" />
            <mxPoint x="420" y="120" as="targetPoint" />
          </mxGeometry>
        </mxCell>
        <mxCell id="XoQq-FdVZH6No3h-3wqu-3" value="&amp;lt;&amp;lt;create&amp;gt;&amp;gt;&lt;br&gt;1.1:" style="html=1;verticalAlign=bottom;endArrow=block;curved=0;rounded=0;" edge="1" parent="1">
          <mxGeometry width="80" relative="1" as="geometry">
            <mxPoint x="570" y="120" as="sourcePoint" />
            <mxPoint x="650" y="120" as="targetPoint" />
          </mxGeometry>
        </mxCell>
        <mxCell id="XoQq-FdVZH6No3h-3wqu-4" value="1.2: copyToRoom(g)" style="html=1;verticalAlign=bottom;endArrow=block;curved=0;rounded=0;" edge="1" parent="1">
          <mxGeometry x="0.0256" y="-25" width="80" relative="1" as="geometry">
            <mxPoint x="370" y="220" as="sourcePoint" />
            <mxPoint x="280" y="290" as="targetPoint" />
            <mxPoint as="offset" />
          </mxGeometry>
        </mxCell>
        <mxCell id="XoQq-FdVZH6No3h-3wqu-5" value="1.3: addRoom(g)" style="html=1;verticalAlign=bottom;endArrow=block;curved=0;rounded=0;horizontal=0;" edge="1" parent="1">
          <mxGeometry y="-10" width="80" relative="1" as="geometry">
            <mxPoint x="460" y="210" as="sourcePoint" />
            <mxPoint x="460" y="310" as="targetPoint" />
            <mxPoint as="offset" />
          </mxGeometry>
        </mxCell>
        <mxCell id="XoQq-FdVZH6No3h-3wqu-6" value="1.4: removeRoom(r)" style="html=1;verticalAlign=bottom;endArrow=block;curved=0;rounded=0;horizontal=0;" edge="1" parent="1">
          <mxGeometry x="-0.0909" y="-10" width="80" relative="1" as="geometry">
            <mxPoint x="540" y="190" as="sourcePoint" />
            <mxPoint x="540" y="300" as="targetPoint" />
            <mxPoint as="offset" />
          </mxGeometry>
        </mxCell>
        <mxCell id="16G7J95jnya1tXmWTlaM-1" value="sd Use Camambert" style="shape=umlFrame;whiteSpace=wrap;html=1;pointerEvents=0;width=140;height=30;" vertex="1" parent="1">
          <mxGeometry x="90" y="60" width="720" height="400" as="geometry" />
        </mxCell>
      </root>
    </mxGraphModel>
  </diagram>
  <diagram id="ozSqL5kNkUjPIHRUAjrX" name="UseGlassOfBeer">
    <mxGraphModel dx="880" dy="532" grid="1" gridSize="10" guides="1" tooltips="1" connect="1" arrows="1" fold="1" page="1" pageScale="1" pageWidth="827" pageHeight="1169" math="0" shadow="0">
      <root>
        <mxCell id="0" />
        <mxCell id="1" parent="0" />
        <mxCell id="ZBtUGxOR7lVsQSNLqBQ1-1" value="g: GlassOfBeer" style="html=1;whiteSpace=wrap;" vertex="1" parent="1">
          <mxGeometry x="400" y="160" width="110" height="50" as="geometry" />
        </mxCell>
        <mxCell id="ZBtUGxOR7lVsQSNLqBQ1-2" value="s: Student" style="html=1;whiteSpace=wrap;" vertex="1" parent="1">
          <mxGeometry x="120" y="160" width="110" height="50" as="geometry" />
        </mxCell>
        <mxCell id="ZBtUGxOR7lVsQSNLqBQ1-3" value="" style="endArrow=none;html=1;rounded=0;" edge="1" parent="1" source="ZBtUGxOR7lVsQSNLqBQ1-2" target="ZBtUGxOR7lVsQSNLqBQ1-1">
          <mxGeometry width="50" height="50" relative="1" as="geometry">
            <mxPoint x="390" y="270" as="sourcePoint" />
            <mxPoint x="440" y="220" as="targetPoint" />
          </mxGeometry>
        </mxCell>
        <mxCell id="ZBtUGxOR7lVsQSNLqBQ1-4" value="1: use(s)" style="html=1;verticalAlign=bottom;endArrow=block;curved=0;rounded=0;" edge="1" parent="1">
          <mxGeometry width="80" relative="1" as="geometry">
            <mxPoint x="250" y="159" as="sourcePoint" />
            <mxPoint x="330" y="159" as="targetPoint" />
          </mxGeometry>
        </mxCell>
        <mxCell id="ZBtUGxOR7lVsQSNLqBQ1-5" value="1.1: setProtected(true)" style="html=1;verticalAlign=bottom;endArrow=block;curved=0;rounded=0;" edge="1" parent="1">
          <mxGeometry width="80" relative="1" as="geometry">
            <mxPoint x="340" y="209" as="sourcePoint" />
            <mxPoint x="260" y="209" as="targetPoint" />
          </mxGeometry>
        </mxCell>
        <mxCell id="ZBtUGxOR7lVsQSNLqBQ1-6" value="sd Use Glass Of Beer" style="shape=umlFrame;whiteSpace=wrap;html=1;pointerEvents=0;width=130;height=30;" vertex="1" parent="1">
          <mxGeometry x="70" y="110" width="510" height="150" as="geometry" />
        </mxCell>
      </root>
    </mxGraphModel>
  </diagram>
  <diagram id="WU2vQYqxBTs-SWTDHWyh" name="UseWetRag(todo)">
    <mxGraphModel dx="880" dy="532" grid="1" gridSize="10" guides="1" tooltips="1" connect="1" arrows="1" fold="1" page="1" pageScale="1" pageWidth="827" pageHeight="1169" math="0" shadow="0">
      <root>
        <mxCell id="0" />
        <mxCell id="1" parent="0" />
      </root>
    </mxGraphModel>
  </diagram>
  <diagram id="Y3iAYQrIvd8GqUJJT6LO" name="PickupDice">
    <mxGraphModel dx="880" dy="532" grid="1" gridSize="10" guides="1" tooltips="1" connect="1" arrows="1" fold="1" page="1" pageScale="1" pageWidth="827" pageHeight="1169" math="0" shadow="0">
      <root>
        <mxCell id="0" />
        <mxCell id="1" parent="0" />
        <mxCell id="FvLUsBCnhafEjZFDkFG3-1" value="d: Dice" style="html=1;whiteSpace=wrap;" vertex="1" parent="1">
          <mxGeometry x="120" y="320" width="110" height="50" as="geometry" />
        </mxCell>
        <mxCell id="FvLUsBCnhafEjZFDkFG3-2" value="r: Room" style="html=1;whiteSpace=wrap;" vertex="1" parent="1">
          <mxGeometry x="400" y="120" width="110" height="50" as="geometry" />
        </mxCell>
        <mxCell id="FvLUsBCnhafEjZFDkFG3-3" value="s: Student" style="html=1;whiteSpace=wrap;" vertex="1" parent="1">
          <mxGeometry x="120" y="120" width="110" height="50" as="geometry" />
        </mxCell>
        <mxCell id="FvLUsBCnhafEjZFDkFG3-6" value="" style="endArrow=none;html=1;rounded=0;" edge="1" parent="1" source="FvLUsBCnhafEjZFDkFG3-1" target="FvLUsBCnhafEjZFDkFG3-3">
          <mxGeometry width="50" height="50" relative="1" as="geometry">
            <mxPoint x="390" y="300" as="sourcePoint" />
            <mxPoint x="440" y="250" as="targetPoint" />
          </mxGeometry>
        </mxCell>
        <mxCell id="FvLUsBCnhafEjZFDkFG3-7" value="" style="endArrow=none;html=1;rounded=0;" edge="1" parent="1" source="FvLUsBCnhafEjZFDkFG3-3" target="FvLUsBCnhafEjZFDkFG3-2">
          <mxGeometry width="50" height="50" relative="1" as="geometry">
            <mxPoint x="390" y="300" as="sourcePoint" />
            <mxPoint x="440" y="250" as="targetPoint" />
          </mxGeometry>
        </mxCell>
        <mxCell id="FvLUsBCnhafEjZFDkFG3-8" value="1: removeItem(d)" style="html=1;verticalAlign=bottom;endArrow=block;curved=0;rounded=0;" edge="1" parent="1">
          <mxGeometry width="80" relative="1" as="geometry">
            <mxPoint x="250" y="119" as="sourcePoint" />
            <mxPoint x="330" y="119" as="targetPoint" />
          </mxGeometry>
        </mxCell>
        <mxCell id="FvLUsBCnhafEjZFDkFG3-9" value="2: onPickedUp(s)" style="html=1;verticalAlign=bottom;endArrow=block;curved=0;rounded=0;horizontal=0;" edge="1" parent="1">
          <mxGeometry y="-10" width="80" relative="1" as="geometry">
            <mxPoint x="120" y="190" as="sourcePoint" />
            <mxPoint x="120" y="290" as="targetPoint" />
            <mxPoint as="offset" />
          </mxGeometry>
        </mxCell>
      </root>
    </mxGraphModel>
  </diagram>
  <diagram id="VSjXjcWOq3Na6rR_r85p" name="Page-11">
    <mxGraphModel dx="880" dy="532" grid="1" gridSize="10" guides="1" tooltips="1" connect="1" arrows="1" fold="1" page="1" pageScale="1" pageWidth="827" pageHeight="1169" math="0" shadow="0">
      <root>
        <mxCell id="0" />
        <mxCell id="1" parent="0" />
      </root>
    </mxGraphModel>
  </diagram>
  <diagram id="wV7YJg8A4tXavKmiMWp8" name="Page-12">
    <mxGraphModel dx="880" dy="532" grid="1" gridSize="10" guides="1" tooltips="1" connect="1" arrows="1" fold="1" page="1" pageScale="1" pageWidth="827" pageHeight="1169" math="0" shadow="0">
      <root>
        <mxCell id="0" />
        <mxCell id="1" parent="0" />
      </root>
    </mxGraphModel>
  </diagram>
  <diagram id="SD5kJnfq1gnDlH2wgD3_" name="Page-13">
    <mxGraphModel dx="880" dy="532" grid="1" gridSize="10" guides="1" tooltips="1" connect="1" arrows="1" fold="1" page="1" pageScale="1" pageWidth="827" pageHeight="1169" math="0" shadow="0">
      <root>
        <mxCell id="0" />
        <mxCell id="1" parent="0" />
      </root>
    </mxGraphModel>
  </diagram>
</mxfile>
